<?xml version="1.0" standalone="no"?>
<!DOCTYPE svg PUBLIC "-//W3C//DTD SVG 20010904//EN"
 "http://www.w3.org/TR/2001/REC-SVG-20010904/DTD/svg10.dtd">
<svg version="1.0" xmlns="http://www.w3.org/2000/svg"
 width="512.000000pt" height="512.000000pt" viewBox="0 0 512.000000 512.000000"
 preserveAspectRatio="xMidYMid meet">

<g transform="translate(0.000000,512.000000) scale(0.100000,-0.100000)"
fill="#000000" stroke="none">
<path d="M301 3904 c-123 -33 -209 -105 -264 -222 l-32 -67 0 -1055 0 -1055
32 -67 c56 -119 141 -190 268 -223 52 -13 314 -15 2252 -15 1566 0 2207 3
2245 11 124 26 224 107 281 227 l32 67 0 1055 0 1055 -32 67 c-57 120 -157
201 -281 227 -38 8 -678 11 -2250 10 -1887 0 -2205 -2 -2251 -15z m4537 -168
c65 -36 108 -92 122 -160 8 -36 10 -349 8 -1046 l-3 -995 -31 -55 c-37 -66
-94 -105 -174 -120 -38 -7 -779 -9 -2235 -8 -1767 3 -2186 5 -2210 16 -60 26
-103 64 -131 115 l-29 52 -3 1000 c-2 685 1 1014 8 1043 23 93 102 168 194
183 23 4 1029 6 2236 5 l2195 -1 53 -29z"/>
<path d="M345 3575 l-25 -24 0 -991 0 -991 25 -24 c23 -24 29 -25 168 -25 131
0 147 2 171 21 34 27 36 77 3 107 -21 19 -34 22 -120 22 l-97 0 0 890 0 890
645 0 645 0 0 -890 0 -890 -419 0 -420 0 -20 -26 c-28 -35 -26 -69 4 -99 l24
-25 1911 0 1911 0 24 25 25 24 0 991 0 991 -25 24 -24 25 -464 0 c-455 0 -465
0 -491 -21 -30 -23 -35 -72 -12 -105 12 -16 30 -20 116 -24 l103 -5 -127 -170
c-166 -224 -180 -247 -169 -282 17 -51 46 -61 183 -64 69 -2 203 -2 298 -1
157 2 174 4 192 22 30 30 27 83 -6 109 -25 20 -39 21 -240 21 l-213 0 136 185
135 185 229 0 229 0 0 -890 0 -891 -141 3 -141 3 -15 45 c-17 48 -58 114 -92
144 l-21 19 36 40 c140 154 119 402 -44 520 -67 49 -134 71 -211 71 -125 0
-237 -62 -299 -164 -63 -106 -65 -170 -5 -198 49 -23 80 -4 108 66 22 58 61
104 109 129 40 21 132 21 172 0 36 -19 91 -79 105 -114 16 -41 10 -114 -12
-160 -34 -70 -73 -93 -202 -118 -37 -7 -59 -56 -45 -97 12 -33 28 -43 84 -51
62 -7 113 -36 145 -80 16 -22 29 -44 29 -49 0 -4 -191 -8 -425 -8 l-425 0 0
890 0 890 99 0 c96 0 100 1 120 26 12 15 21 33 21 40 0 26 -23 62 -47 73 -17
8 -467 11 -1604 11 l-1580 0 -24 -25z m2860 -1015 l0 -885 -645 0 -645 0 -3
875 c-1 481 0 881 3 888 3 10 138 12 647 10 l643 -3 0 -885z"/>
<path d="M2376 3149 c-34 -27 -36 -77 -3 -107 20 -19 35 -22 115 -22 l92 0 0
-515 c0 -502 1 -516 20 -535 38 -38 100 -22 119 31 14 41 15 1059 1 1108 -16
55 -30 60 -181 61 -123 0 -139 -2 -163 -21z"/>
<path d="M1005 3177 c-130 -43 -223 -140 -260 -269 -14 -49 -16 -104 -13 -375
l3 -318 27 -57 c35 -76 109 -153 183 -191 56 -30 67 -32 165 -32 99 0 109 2
172 33 82 40 157 119 190 200 22 55 23 70 26 365 3 255 0 318 -13 370 -28 112
-113 211 -220 258 -63 27 -201 35 -260 16z m231 -173 c30 -18 60 -48 79 -78
l30 -49 3 -303 c3 -292 2 -305 -19 -353 -39 -91 -116 -141 -216 -141 -74 0
-129 25 -174 79 -56 64 -59 87 -59 407 0 283 1 290 24 340 41 87 123 136 222
131 48 -2 73 -10 110 -33z"/>
</g>
</svg>
